<?xml version="1.0" encoding="UTF-8"?>
<svg version="1.1" xmlns="http://www.w3.org/2000/svg" width="30" height="30">
<path d="M0 0 C1.98 0 3.96 0 6 0 C6 0.66 6 1.32 6 2 C6.99 2.33 7.98 2.66 9 3 C9 3.66 9 4.32 9 5 C9.99 5.33 10.98 5.66 12 6 C12 6.66 12 7.32 12 8 C12.99 8.33 13.98 8.66 15 9 C15 9.66 15 10.32 15 11 C15.99 11.33 16.98 11.66 18 12 C18 13.98 18 15.96 18 18 C17.01 18.33 16.02 18.66 15 19 C14.67 19.99 14.34 20.98 14 22 C13.34 22 12.68 22 12 22 C11.67 22.99 11.34 23.98 11 25 C10.34 25 9.68 25 9 25 C8.67 25.99 8.34 26.98 8 28 C7.34 28 6.68 28 6 28 C6 28.66 6 29.32 6 30 C4.02 30 2.04 30 0 30 C0 29.34 0 28.68 0 28 C-0.99 27.67 -1.98 27.34 -3 27 C-3 26.34 -3 25.68 -3 25 C-3.99 24.67 -4.98 24.34 -6 24 C-6 23.34 -6 22.68 -6 22 C-6.99 21.67 -7.98 21.34 -9 21 C-9 20.34 -9 19.68 -9 19 C-9.99 18.67 -10.98 18.34 -12 18 C-12 16.02 -12 14.04 -12 12 C-11.01 11.67 -10.02 11.34 -9 11 C-8.67 10.01 -8.34 9.02 -8 8 C-7.34 8 -6.68 8 -6 8 C-5.67 7.01 -5.34 6.02 -5 5 C-4.34 5 -3.68 5 -3 5 C-2.67 4.01 -2.34 3.02 -2 2 C-1.34 2 -0.68 2 0 2 C0 1.34 0 0.68 0 0 Z " fill="#FF6D01" transform="translate(12,0)"/>
<path d="M0 0 C1.65 0.33 3.3 0.66 5 1 C4.6875 2.9375 4.6875 2.9375 4 5 C3.01 5.33 2.02 5.66 1 6 C1 6.99 1 7.98 1 9 C0.34 9 -0.32 9 -1 9 C-1 9.99 -1 10.98 -1 12 C-2.65 12.33 -4.3 12.66 -6 13 C-6 13.99 -6 14.98 -6 16 C-6.66 16 -7.32 16 -8 16 C-10 13 -10 13 -9.8125 10.875 C-9.544375 10.25625 -9.27625 9.6375 -9 9 C-8.01 8.67 -7.02 8.34 -6 8 C-4.79117904 5.99983534 -4.79117904 5.99983534 -4 4 C-3.01 4 -2.02 4 -1 4 C-0.67 2.68 -0.34 1.36 0 0 Z " fill="#FFBC8D" transform="translate(13,3)"/>
<path d="M0 0 C1.32 1.65 2.64 3.3 4 5 C3.67 5.66 3.34 6.32 3 7 C2.01 7 1.02 7 0 7 C0 7.99 0 8.98 0 10 C-0.66 10 -1.32 10 -2 10 C-4 7 -4 7 -3.8125 4.875 C-3.544375 4.25625 -3.27625 3.6375 -3 3 C-2.01 2.67 -1.02 2.34 0 2 C0 1.34 0 0.68 0 0 Z " fill="#FF8E3D" transform="translate(7,9)"/>
<path d="M0 0 C1.9375 0.375 1.9375 0.375 4 1 C4.33 1.66 4.66 2.32 5 3 C3.68 2.67 2.36 2.34 1 2 C1.33 3.32 1.66 4.64 2 6 C1.01 5.34 0.02 4.68 -1 4 C-0.67 2.68 -0.34 1.36 0 0 Z " fill="#FFCCA7" transform="translate(4,12)"/>
</svg>
